<svg width="30" height="23" viewBox="0 0 30 23" fill="none" xmlns="http://www.w3.org/2000/svg">
<path d="M24.8643 1.18961C27.4363 1.9203 22.2839 4.2042 21.428 4.42549C16.9646 5.77829 11.9959 6.12902 7.59095 4.95158C8.49282 7.13527 11.0231 20.0036 12.1713 20.8136C14.2923 19.0099 16.8894 20.9222 20.4802 19.7614C28.3131 18.6926 22.1378 5.53612 26.7306 2.85557C27.1857 2.49649 24.9812 2.33365 25.9039 1.61132C31.5824 1.12698 29.7327 2.83469 26.3006 4.38791C25.1941 19.9159 27.5031 20.7343 11.1316 22.0746C10.6932 22.0871 10.9062 20.0955 10.2256 19.9493C6.49285 19.1518 3.97095 24.8261 1.54927 17.4775C-1.21897 12.0622 3.05238 8.30019 7.16925 6.19165C8.02101 4.93905 5.97511 5.44844 5.925 5.36494C7.44899 -0.397007 20.7015 1.0393 24.8601 1.18961H24.8643ZM22.572 2.45056C18.4176 2.17082 11.7746 1.6155 8.42184 4.10816C12.8477 5.40669 18.8059 4.61755 22.572 2.45056ZM10.0878 17.8867C8.76005 17.1602 7.76632 6.23758 6.96883 6.62171C2.17556 10.3043 0.346772 12.0496 2.92712 18.1873C3.93755 20.5882 4.87282 20.7385 7.16925 19.3523C6.29243 19.1727 4.45529 19.8115 3.80394 18.8804C3.6077 18.5965 2.26742 12.6759 2.27994 12.1582C2.305 11.1979 6.64316 7.87848 6.96466 7.88265C7.05651 7.88265 7.69951 8.53818 7.58678 8.70102C6.58053 8.99329 3.6912 11.0642 3.49496 11.9244C4.02941 16.321 4.35926 19.9535 10.0836 17.8909L10.0878 17.8867Z" fill="#145252"/>
<path d="M15.0811 10.7976C14.221 12.0836 11.3359 13.1817 10.0874 11.8331L15.0811 10.7976Z" fill="#145252"/>
<path d="M17.5782 16.6427C17.6492 18.5341 13.883 17.6907 12.5887 17.8911C12.2964 16.2794 16.3632 17.0769 17.5782 16.6427Z" fill="#145252"/>
<path d="M13.8333 6.62203C14.0379 7.88715 13.516 7.28173 12.8229 7.46545C11.445 7.82452 10.6016 8.19195 9.67469 6.82662L13.8333 6.62203Z" fill="#145252"/>
<path d="M15.081 12.8854C15.081 14.6683 12.2001 14.5597 10.9224 14.5514C11.6865 13.2696 13.7909 13.328 15.081 12.8854Z" fill="#145252"/>
<path d="M14.2461 8.70983C15.3526 9.67851 10.7556 10.6555 10.5051 9.32778L14.2461 8.70983Z" fill="#145252"/>
</svg>
