<svg width="22" height="41" viewBox="0 0 22 41" fill="none" xmlns="http://www.w3.org/2000/svg">
<path d="M1.82386 0.788828C7.8898 5.21355 26.4115 17.4198 14.8617 24.3742C14.8486 24.5493 15.9252 27.5604 16.0696 27.661C16.4241 27.9149 17.7021 27.1621 17.794 27.2234C18.6212 27.823 20.0304 35.4645 20.4462 37.0488C22.6301 39.2196 19.0545 40.3969 17.2075 40.7645C16.1747 40.445 13.8726 31.4818 13.2292 29.845C10.3494 22.5054 5.20696 15.144 2.32717 7.51563C1.51312 6.61406 -0.206876 -1.99468 1.82386 0.780073V0.788828ZM6.62935 8.68417C-5.56819 -8.03875 11.6274 26.7245 14.0914 28.1031C15.5051 27.8405 13.3912 25.1358 13.5137 24.4486C13.7588 23.1006 18.3192 21.7395 17.7196 19.258C15.1462 13.0695 9.92929 6.58779 3.84584 3.59859C5.53958 5.28795 19.3608 20.7154 13.4918 20.6104C11.2423 16.7546 9.6667 12.3736 6.62935 8.68417Z" fill="#145252"/>
</svg>
