<svg width="24" height="21" viewBox="0 0 24 21" fill="none" xmlns="http://www.w3.org/2000/svg">
<path d="M23.5862 2.42334C23.7195 3.6899 21.9757 7.8389 21.901 9.0468C21.1891 8.99347 21.2131 8.37752 21.2291 7.85756C21.2717 6.45501 22.2503 4.82314 22.5676 3.44725L12.7311 2.64465C12.6218 2.75398 12.7498 5.22044 12.6831 5.72174C11.6219 6.14837 12.4965 6.30302 13.2644 6.24169C13.5177 6.30569 14.1416 6.83898 14.3283 6.64433C14.1017 4.66582 17.9093 5.48442 18.8426 6.24436C18.432 7.53492 17.4427 7.67624 16.1175 7.39093C15.4429 7.24695 14.9123 6.02571 14.5976 6.38035C15.6029 9.0628 12.1765 5.22311 11.6725 7.97489C13.4884 7.62558 24.0208 11.164 18.8559 7.31094C19.2959 6.40168 20.9224 7.78023 20.9864 8.38552C20.7411 12.2225 13.9043 7.87356 11.5979 8.78815C11.2192 9.45477 9.56868 10.0067 9.08606 10.4467C7.80883 11.7052 9.55002 13.5131 6.20896 13.0545C4.19312 12.7772 3.79315 8.84415 1.57467 9.31078C5.40902 13.0945 4.16379 17.1101 10.374 19.278C15.9682 22.3364 23.4209 18.0887 20.1838 11.5693C19.9065 10.6893 21.2504 11.4786 21.4531 12.1639C24.1702 24.5042 9.69401 22.1737 4.38511 15.6836C3.07588 13.5078 2.65458 10.3827 0.510756 9.17212C0.273442 8.60683 0.910722 8.83082 1.16404 8.77215C4.0198 7.22028 4.02247 11.5933 6.4836 12.2625C9.04073 12.4732 6.69958 10.108 11.1419 8.77215C9.97399 7.42293 12.0751 4.49517 12.1231 2.46067C11.4752 0.498159 10.406 1.97804 13.459 0.0235316C15.8722 -0.0991251 21.7624 0.415499 23.5889 2.42334H23.5862Z" fill="#145252"/>
<path d="M18.0513 18.3743C18.2193 16.0011 19.9578 13.988 19.2459 11.4442C21.1097 12.8547 19.7338 17.953 18.0513 18.3743Z" fill="#145252"/>
<path d="M10.4383 11.7982C11.4009 11.5289 11.5609 8.69449 12.7314 9.97972C12.8194 10.417 12.2061 10.5877 12.0781 10.9263C11.8595 11.5049 11.9608 12.9421 11.0089 13.0541C10.057 13.1661 9.98232 12.4675 10.4356 11.7982H10.4383Z" fill="#145252"/>
</svg>
