
<svg xmlns="http://www.w3.org/2000/svg" width="64" height="64" fill="none" viewBox="0 0 64 64">
  <g clip-path="url(#a)">
    <rect width="64" height="64" fill="#fff" rx="32"/>
    <rect width="64" height="64" fill="#ADEBEB" rx="32"/>
    <path fill="#145252" d="M39.933 17.352c-.27-.906-1.037-1.582-1.678-2.249-.278-.315-.947-.636-.834-1.137.204-.557.798-.913.931-1.525.376-1.699-1.606-2.797-3.01-3.166-1.468-.342-2.411-.214-4.003-.27-1.37.001-3.047-.032-4.347.036-.744.041-1.266.41-1.952.693-.732.261-1.471.534-1.513 1.44-.088.843.076 1.286.277 1.987.272 1.51.708 2.394.646 4.044.004 1.91-.02 4.225.004 6.075.03.587.13.369.198.769.113 1.144.04 2.332.278 3.453.096 1.127.233 2.872-.58 3.774-.779.828-1.766 1.74-2.575 2.559-2.096 2.556-.87 3.979.435 6.425.636 1.043 1.087 2.226 1.605 3.311.564.96.986 1.919.902 3.088.004 1.023.052 2.147-.216 2.887-.266 1.895-.575 3.822-.74 5.708-.048.712-.209.902-.315 1.547-.184 1.383-.448 2.87-.635 4.254-.072 1.272.026 3.48-.081 4.246-.006.019-.012.022-.017.008-.003-.048-.027-.124-.026-.193-.033-.235-.074-2.368-.145-1.616-.103 4.174-.46 1.891-2.284 2.785-.636.421-1.146 1.123-1.688 1.63-.774.948-1.91 1.631-2.503 2.77a4.484 4.484 0 0 0-.367 1.14c-.107.55-.404.974-.664 1.48-.663 1.25-1.596 2.398-2.329 3.589-.513 1.28-1.377 2.45-2.029 3.691-1.24 2.276-1.389 4.653.08 6.88.555.778.952 1.65 1.491 2.43.466.567 1.04 1.058 1.554 1.594 1.039 1.25 2.48 1.992 3.834 2.89.565.39 1.318.67 1.692 1.236.321.562.377 1.322.555 1.971.39 1.332.672 2.634.957 4.001.168.814.549 1.535.675 2.322.204 1.242.566 2.507.88 3.733.218.799.531 1.683-.101 2.358-1.136.921-2.612 1.417-3.853 2.191-.726.458-.848 1.436.25 1.392.878-.015 1.85-.712 2.692-.484.414.266-.143.809-.162 1.136.025.643.838.466 1.369.325.546-.176.957-.505 1.385-.839.757-.722 1.017-.396 1.588.434.325.416.902.636 1.411.522.67-.223.58-1.129.643-1.762.136-3.186-.662-2.113-2.008-4.161-.242-.914-.238-2.343-.435-3.323-.326-1.204-.451-2.64-.5-3.962-.05-.33-.131.601-.173.562-.188-1.313.114-3.087-.188-4.478-.153-.608-.948-.406-1.209-.034-.195.322-.1.533-.085 1.022.03.375.047.877.041 1.493-.033 1.17.062 2.693-.04 3.766-.052.018-.162-.335-.195-.452-.16-.618-.328-1.114-.512-1.751-.362-1.261-.794-2.469-1.071-3.758-.04-.368-.718-1.434-.36-1.649.116-.03.567.02.856.092 2.33.55 4.762.966 7.144 1.253 1.79.332 3.522.369 5.317.284 1.111.172.876 1.01.79 2.023-.06.982-.024 2.041-.035 3.022-.004.324 0 .532-.022.757-.035.361-.12-.052-.18.047-.105.363-.052.843-.012 1.204.03.213.147.264.16.469.061.359.045 1.332-.078 1.895-.1.411-.408.624-.31 1.096.18 1.158.086 2.484.46 3.65.297.68-.395.987-.384 1.641.109.992.468 2.686 1.59 2.697.55-.068.96-.712 1.135-1.218.074-.164.147-.387.316-.439.413-.098.81.213 1.215.301 1.685.611 2.07-1.089 2.643-2.255.06-.12.112-.16.19-.265.289-.352.784-.251 1.15-.447.44-.236.422-.748.008-.982-.992-.497-2.273-.302-3.356-.55-1.558-.235-1.222-1.759-1.073-2.91.243-1.978.655-3.73.988-5.662a9.744 9.744 0 0 0 .408-2.271c.098-1.133.409-2.268.987-3.275.221-.304.577-.495.91-.671.51-.286.97-.618 1.453-.986a56.193 56.193 0 0 0 5.134-4.373c.982-.9 2.1-1.678 3.017-2.691.846-.903.29-2.041.302-3.143.105-1.888.346-3.979-.088-5.87-.826-3.275-2.74-6.386-5.463-8.413-1.285-1.05-2.919-1.919-4.259-2.97-.59-.483-1.024-.991-1.609-1.443-.385-.324-1.565-1.037-1.731-.324a2.632 2.632 0 0 1-.753 1.323 7.864 7.864 0 0 1-1.074 1.488c-.521.768-1.03 1.476-1.683 2.162-.308.336-.57.709-.91.885-.46.137-.86.367-1.233.692-.78.584-1.695 1.115-2.648 1.346-1.27.276-2.316-.741-3.27-1.462-1.189-.922-2.19-2.078-3.092-3.26-.443-.678.196-1.251.267-2.008.154-1.423-.011-3.055.275-4.431.2-1.297.034-2.851.23-4.096.124-1.792.7-3.429.827-5.206.018-.206.055-.516.083-.646.042-.21.162-.277.176-.564.12-1.735.634-3.631.463-5.43-.048-.526-.25-.746-.503-1.22-.439-.88-.92-1.875-1.235-2.787a14.06 14.06 0 0 0-1.111-2.416c-.588-.892-1.075-1.84-.944-2.934.204-1.425 1.53-2.2 2.46-3.196 1.242-1.127 2.472-2.266 3.809-3.248.558-.372.99-.876 1.535-1.246.682-.328 1.602-.517 2.397-.554 2.08.084 4.158 1.183 5.844 2.301.846.413 1.526 1.078 2.293 1.613.8.557 1.353 1.206 1.44 2.142-.054.991.004 2.174-.433 3.049-.378.538-.748 1.142-1.147 1.699-.501.704-1.378 1.484-1.108 2.453.779 1.527 3.421.971 4.84 1.08 2.18.03 4.44-.231 6.64-.113.704.037 1.537.245.574.78-.729.354-1.57.49-2.342.72-1.223.475-2.526.932-3.867 1.074a6.953 6.953 0 0 1-2.083-.017c-.743-.16-1.5-.19-2.2.155-.88.421-1.749.718-2.724.875-1.1.283-3.104.09-3.638 1.369-.365 1.272-.225 2.933-.324 4.239-.2 2.573-.465 5.149-.28 7.784.112 1.05.068 4.795 1.094 5.13 1.28.357 1.062-1.45.887-2.22-.088-.573-.066-1.059-.067-1.664.01-3.002.034-8.813.042-11.338.015-.69-.059-1.098.256-1.413.825-.622 2.153-.396 3.08-.732 1.418-.544 2.328-.49 3.831-.382 2.394.195 4.61-.787 6.89-1.434 1.55-.553 6.049-2.98 3.526-4.624-.736-.36-1.719-.29-2.551-.278-.717.016-1.44.022-2.133.103-1.156.073-1.867.085-3.004.198-1.157-.017-2.466.022-3.61-.07-1.812-.403 2.017-2.707 1.349-6.25-.134-1.295-1.07-2.166-1.997-2.974-.846-.716-1.699-1.477-2.574-2.137-1.459-1.038-.887-1.806-.63-3.273.216-1.985.813-3.851 1.244-5.787.257-1.083.56-2.218.298-3.353l-.004-.017-.001.01Zm-4.81 3.02c-.1.71-.298 2.754.39 3.044.307.14.726.248.939-.133.431-.798.232-1.887.383-2.733-.008-1.316-.16-2.597-.092-3.919-.132-2.174 1.72-.221 1.736.788.056 1.156-.366 2.394-.575 3.517-1.294 4.55-.285 3.204-4.757 3.736-1.673.232-3.524.666-5.082 1.364-1.009.33-2.246 1.521-.33 1.442 1.991-.487 3.988-1.4 6.106-1.336.674-.01 1.198-.032 1.765-.177.525-.193 1.026-.072 1.077.59.16 1.467-.176 1.918-1.736 1.437-1.175-.286-2.374-.75-3.576-.663-3.997.673-5.452 5.657-5.569-1.111-.032-.246-.069-.2-.198-.07a24.907 24.907 0 0 0-.041-1.085c-.066-1.119-.17-1.62-.25-2.435-.073-.743-.075-1.39-.078-2.68a54.51 54.51 0 0 1 .06-2.665c.469-1.185.045-2.441-.21-3.644-.328-1.341-.865-2.473.892-2.898 1.348-.314 4.375-1.037 4.48 1.062.232 2.765-.18 5.523-.089 8.25.077.394.194.773.43 1.095.332.464 1.308.809 1.514.011.16-.568.014-1.243-.024-1.835-.137-1.495-.04-3.076-.138-4.599-.072-2.172-.789-4.89 2.51-4.075.54.096.911.165 1.354.34.259.095.557.15.73.383.322.732-.986 1.068-1.37 1.516-.816.956-.14 2.42-.193 6.082a26.234 26.234 0 0 1-.058 1.397v.003ZM49.482 77.9c.096.48.093 1.02.217 1.474.062.071.17-.346.19.215.017 1.047.018 2.505-.003 3.634-.007.531-.156 1.029-.206 1.54.446.886-.325 1.844-.994 2.381-1.95 1.041-3.374 2.803-4.893 4.381-1.37.862-2.702 2.108-4.122 2.872-2.488.961-5.084 1.76-7.764 1.856-7.105.065-13.6-1.239-18.18-7.117-3.065-4.621-2.855-4.945-.36-9.681.856-2.06 2.092-3.922 3.03-5.94.98-2.335 1.993-5.337 4.366-2.061 1.728 1.525 3.291 3.262 4.746 5.046.384.507 1.521.618 1.278 1.398-.757 1.69-1.122 3.528-1.437 5.349-.006.903-.02 2.068.392 2.909.635.975 1.72.314 1.783-.683.084-1.089 1.416-1.498 1.406-2.555.02-1.282-.525-2.464.095-3.71.12-.235.238-.784.57-.701.704.825.522 2.316 1.157 3.205.47 1 .284 2.313 1.116 3.15.326.468.897.61 1.28.12 1.714-1.647-.68-5.208.091-7.355.636-1.282 2.007-2.044 2.994-3.044 1.198-1.278 2.675-2.551 4.054-3.638.554-.527.374-1.835 1.33-1.832 3.753 1.396 6.952 4.792 7.864 8.763l.004.024h-.004ZM38.388 99.012c-.216 1.78-.982 3.156-1.222 4.944-.065.566-.076 1.195-.226 1.722-.312.707-.52 1.363-.578 2.228-.019.185-.074 1.631-.145 1.321-.05-.478-.047-1.215-.128-1.748-.065-.529-.153-1.037-.13-1.561.017-.456.182-.85.201-1.587.03-.932.004-1.916-.008-2.847 0-.509-.028-.847.026-1.253.06-.356.195-.054.259-.436.089-.677-.01-1.839.162-2.422.106-.363.333-.384.59-.52.323-.179.704-.32 1.071-.375.16-.018.296-.032.387-.008.279.115.165.722.214.973.08.564-.359 1.002-.467 1.546l-.006.023Zm.667 12.732c.2.501.183 1.55-.077 1.974-.448.7-1.867-.773-2.288-1.125-1.037-1.014-.37-1.313.79-1.191.274.025.552.04.789.047.327.022.625-.013.78.282l.008.016-.002-.003Z"/>
    <path fill="#145252" d="M31.31 40.131c-.29.31-.277.95-.17 1.378.087.535.296 1.014.68 1.325.116.088.244-.02.37-.08a.968.968 0 0 0 .334-.257c.434-.687.202-1.864-.487-2.334-.215-.16-.53-.275-.714-.044l-.012.014v-.002Zm5.932-2.122c-.27.05-.39.256-.385.502.013.54.134 1.375.648 1.69 1.282.329 1.552-2.392-.243-2.195l-.02.004v-.001Zm-9.655-23.626c-.227-.424-.158-.971-.49-1.363-.309-.297-.704-.046-.936.31-.224.347-.257.855-.267 1.277-.078 1.42.95 4.327.99 4.422.175 1.11-.177 2.645.538 3.474.336.43 1.04.692 1.374.14.178-.31.098-.633.055-.974a15.847 15.847 0 0 1-.147-1.363c-.038-.799-.166-1.402-.374-2.144-.09-.345-.155-.832-.246-1.145-.142-.504-.261-.695-.325-1.12-.09-.473-.044-1.054-.169-1.505l-.003-.01Z"/>
  </g>
  <defs>
    <clipPath id="a">
      <rect width="64" height="64" fill="#fff" rx="32"/>
    </clipPath>
  </defs>
</svg>
