<svg xmlns="http://www.w3.org/2000/svg" width="18" height="10" fill="none" viewBox="0 0 18 10">
  <path fill="#145252" d="M17.2.719c.021-.018.044-.618.375-.314.776 3.705-5.72 4.842-8.123 6.474-1.47.907-1.955 2.447-4.052 2.766-.628.096-2.487.042-2.634-.771-.135-.744.865-.699 1.203-1.014.577-1.147.859-1.668 2.058-1.36.487-1.234 1.866-.442 2.838-1.612l3.648-1.855c-1.595.068-5.636.466-6.985 1.05-.035.051.405.829-.163 1.143-.103.057-1.73-.067-2.326.254C2.68 6.79.88 6.359.372 5.143c-.114-.481.928-2.24 1.482-2.382 4.64-.5 10.572-3.156 15.348-2.042H17.2Zm-2.438.408C6.55 1.631 3.528 3.378 3.528 3.378s-.407.81-.096 1.23c-.66.14-.624-.971-.7-1.052-.029-.033-.623.296-.871.179.462.307.282 1.899-.09 1.228-.138-2.324-.628-.16-.958.517.303.007.556.26.827.315 1.186.236.536-.242.774-.629.17-.277 2.358-.827 2.764-.382.109-.292-.278-1.068-.17-1.219 2.934-1.24 6.836-.977 9.95-1.76-.135-.161-.15-.636-.194-.676l-.002-.002Zm1.881 1.317c.104-.096.563-.662.324-.813-2.371 1.992-6.626 2.11-8.766 4.563-2.415-.529-1.958.683-1.448 1.916-.373.401-.832-1.157-.897-1.2-1.823-.285-1.245.985-.85 2.074-.96-1.219-.798-.797-1.916-.086.864 1.148 4.726-.585 4.713-1.572-.003-.279-.478-.575-.352-.965l.785.872c2.58-1.664 6.018-2.908 8.407-4.787v-.002Z"/>
</svg>
