<svg width="325" height="782" viewBox="0 0 325 782" fill="none" xmlns="http://www.w3.org/2000/svg">
<g clip-path="url(#clip0_82_4811)">
<path d="M104.45 61.5438C106.41 54.9538 111.99 50.0438 116.65 45.1938C118.67 42.9038 123.53 40.5638 122.71 36.9238C121.23 32.8738 116.91 30.2838 115.94 25.8338C113.21 13.4838 127.62 5.50379 137.83 2.81379C148.5 0.33379 155.36 1.26379 166.93 0.85379C176.89 0.86379 189.09 0.62379 198.54 1.11379C203.95 1.41379 207.74 4.10379 212.73 6.15379C218.05 8.05379 223.43 10.0338 223.73 16.6238C224.37 22.7538 223.18 25.9738 221.72 31.0738C219.74 42.0538 216.57 48.4738 217.02 60.4738C216.99 74.3638 217.16 91.1938 216.99 104.644C216.78 108.914 216.04 107.324 215.55 110.234C214.73 118.554 215.26 127.194 213.53 135.344C212.83 143.534 211.84 156.224 217.75 162.784C223.41 168.804 230.59 175.434 236.47 181.384C251.71 199.974 242.8 210.314 233.31 228.104C228.68 235.684 225.4 244.284 221.64 252.174C217.54 259.154 214.47 266.124 215.08 274.624C215.05 282.064 214.7 290.234 216.65 295.614C218.58 309.394 220.83 323.404 222.03 337.114C222.38 342.294 223.55 343.674 224.32 348.364C225.66 358.424 227.58 369.234 228.94 379.294C229.46 388.544 228.75 404.594 229.53 410.164C229.57 410.304 229.61 410.324 229.65 410.224C229.67 409.874 229.85 409.324 229.84 408.824C230.08 407.114 230.38 391.604 230.89 397.074C231.64 427.424 234.24 410.824 247.5 417.324C252.12 420.384 255.83 425.484 259.77 429.174C265.4 436.064 273.66 441.034 277.97 449.314C279.36 452.214 280.05 454.644 280.64 457.604C281.42 461.594 283.58 464.684 285.47 468.364C290.29 477.444 297.07 485.794 302.4 494.454C306.13 503.764 312.41 512.264 317.15 521.294C326.17 537.844 327.25 555.124 316.57 571.314C312.54 576.974 309.65 583.314 305.73 588.984C302.34 593.104 298.17 596.674 294.43 600.574C286.88 609.654 276.4 615.054 266.56 621.584C262.45 624.424 256.97 626.454 254.25 630.574C251.92 634.654 251.51 640.184 250.22 644.904C247.38 654.584 245.33 664.054 243.26 673.994C242.04 679.914 239.27 685.154 238.35 690.874C236.87 699.904 234.24 709.104 231.95 718.014C230.37 723.824 228.09 730.254 232.69 735.164C240.95 741.854 251.68 745.464 260.7 751.094C265.98 754.424 266.87 761.534 258.89 761.214C252.5 761.104 245.44 756.034 239.31 757.694C236.3 759.624 240.35 763.574 240.49 765.954C240.31 770.624 234.4 769.344 230.54 768.314C226.57 767.034 223.58 764.644 220.47 762.214C214.96 756.964 213.07 759.334 208.92 765.374C206.56 768.394 202.36 769.994 198.66 769.164C193.79 767.544 194.45 760.954 193.99 756.354C193 733.194 198.8 740.994 208.59 726.104C210.35 719.454 210.32 709.064 211.75 701.944C214.12 693.184 215.03 682.744 215.39 673.134C215.75 670.734 216.34 677.504 216.64 677.224C218.01 667.674 215.81 654.774 218.01 644.664C219.12 640.244 224.9 641.714 226.8 644.414C228.22 646.754 227.52 648.294 227.42 651.844C227.2 654.574 227.08 658.224 227.12 662.704C227.36 671.204 226.67 682.284 227.41 690.084C227.79 690.214 228.59 687.644 228.83 686.794C229.99 682.304 231.21 678.694 232.55 674.064C235.18 664.894 238.32 656.114 240.34 646.744C240.63 644.064 245.56 636.314 242.96 634.754C242.11 634.534 238.83 634.894 236.73 635.424C219.79 639.424 202.11 642.444 184.79 644.534C171.77 646.944 159.18 647.214 146.13 646.594C138.05 647.844 139.76 653.934 140.39 661.304C140.83 668.444 140.56 676.144 140.64 683.274C140.67 685.634 140.64 687.144 140.8 688.784C141.06 691.404 141.67 688.404 142.11 689.124C142.87 691.764 142.49 695.254 142.2 697.874C141.98 699.424 141.13 699.794 141.03 701.284C140.59 703.894 140.71 710.974 141.6 715.064C142.33 718.054 144.57 719.604 143.86 723.034C142.55 731.454 143.23 741.094 140.51 749.574C138.35 754.514 143.38 756.744 143.3 761.504C142.51 768.714 139.9 781.034 131.74 781.114C127.75 780.614 124.76 775.934 123.49 772.254C122.95 771.064 122.42 769.444 121.19 769.064C118.19 768.354 115.3 770.614 112.36 771.254C100.11 775.694 97.3099 763.334 93.1399 754.854C92.7099 753.984 92.3299 753.694 91.7599 752.934C89.6599 750.374 86.0599 751.104 83.3999 749.684C80.1999 747.964 80.3299 744.244 83.3399 742.544C90.5499 738.924 99.8699 740.344 107.74 738.544C119.07 736.834 116.63 725.754 115.54 717.384C113.78 703.004 110.78 690.264 108.36 676.214C106.68 670.524 105.84 666.064 105.39 659.704C104.68 651.464 102.42 643.214 98.2199 635.894C96.6099 633.684 94.0199 632.294 91.5999 631.014C87.8899 628.934 84.5499 626.524 81.0399 623.844C67.8999 614.004 55.5599 603.374 43.7099 592.054C36.5699 585.514 28.4399 579.854 21.7699 572.484C15.6199 565.924 19.6599 557.644 19.5799 549.634C18.8099 535.904 17.0599 520.704 20.2199 506.954C26.2199 483.144 40.1399 460.524 59.9399 445.784C69.2799 438.154 81.1599 431.834 90.8999 424.194C95.1899 420.684 98.3499 416.984 102.6 413.704C105.4 411.344 113.98 406.164 115.19 411.344C116.04 415.044 117.9 418.314 120.66 420.964C122.78 424.864 125.47 428.444 128.47 431.784C132.26 437.364 135.96 442.514 140.71 447.504C142.95 449.944 144.85 452.654 147.32 453.934C150.67 454.934 153.58 456.604 156.29 458.964C161.96 463.214 168.61 467.074 175.54 468.754C184.78 470.764 192.38 463.364 199.31 458.124C207.96 451.424 215.24 443.014 221.8 434.424C225.02 429.494 220.37 425.324 219.86 419.824C218.74 409.474 219.94 397.614 217.86 387.604C216.4 378.174 217.61 366.874 216.19 357.824C215.28 344.794 211.1 332.894 210.17 319.974C210.04 318.474 209.77 316.224 209.57 315.274C209.26 313.744 208.39 313.264 208.29 311.174C207.41 298.564 203.68 284.774 204.92 271.694C205.27 267.874 206.74 266.274 208.58 262.824C211.77 256.434 215.27 249.194 217.56 242.564C219.67 236.444 222.44 230.564 225.64 224.994C229.91 218.514 233.45 211.614 232.5 203.664C231.02 193.304 221.37 187.674 214.62 180.424C205.58 172.234 196.64 163.954 186.92 156.814C182.86 154.104 179.72 150.444 175.76 147.754C170.8 145.364 164.11 143.994 158.33 143.724C143.21 144.334 128.1 152.324 115.84 160.454C109.69 163.454 104.75 168.294 99.1699 172.184C93.3499 176.234 89.3299 180.954 88.6999 187.754C89.0899 194.964 88.6699 203.564 91.8499 209.924C94.5999 213.834 97.2899 218.224 100.19 222.274C103.83 227.394 110.21 233.064 108.24 240.114C102.58 251.214 83.3699 247.174 73.0499 247.964C57.1999 248.184 40.7699 246.284 24.7699 247.144C19.6599 247.414 13.5999 248.924 20.5999 252.814C25.8999 255.384 32.0199 256.374 37.6299 258.054C46.5199 261.504 55.9999 264.824 65.7499 265.854C70.7199 266.534 76.0099 266.574 80.8899 265.734C86.2899 264.574 91.7999 264.354 96.8899 266.864C103.29 269.924 109.6 272.084 116.69 273.224C124.69 275.284 139.26 273.874 143.14 283.174C145.8 292.424 144.78 304.504 145.5 313.994C146.95 332.704 148.88 351.434 147.53 370.594C146.72 378.224 147.04 405.454 139.58 407.894C130.27 410.484 131.86 397.354 133.13 391.744C133.77 387.584 133.61 384.054 133.62 379.654C133.54 357.824 133.37 315.574 133.31 297.214C133.2 292.194 133.74 289.234 131.45 286.944C125.45 282.424 115.8 284.064 109.06 281.624C98.7499 277.664 92.1299 278.054 81.1999 278.844C63.7999 280.264 47.6799 273.124 31.1099 268.414C19.8399 264.394 -12.8701 246.754 5.46985 234.794C10.8199 232.174 17.9699 232.684 24.0199 232.774C29.2299 232.894 34.4899 232.934 39.5299 233.524C47.9299 234.054 53.0999 234.144 61.3699 234.964C69.7799 234.844 79.2999 235.124 87.6199 234.454C100.79 231.524 72.9499 214.774 77.8099 189.014C78.7799 179.594 85.5899 173.264 92.3299 167.394C98.4799 162.184 104.68 156.654 111.04 151.854C121.65 144.304 117.49 138.724 115.63 128.054C114.05 113.624 109.71 100.054 106.58 85.9838C104.71 78.1038 102.51 69.8538 104.41 61.6038L104.44 61.4738L104.45 61.5438ZM139.42 83.4938C140.15 88.6638 141.59 103.524 136.58 105.634C134.35 106.654 131.31 107.434 129.76 104.664C126.62 98.8638 128.07 90.9438 126.97 84.7938C127.03 75.2238 128.14 65.9138 127.64 56.3038C128.6 40.4938 115.13 54.6938 115.02 62.0338C114.61 70.4338 117.68 79.4338 119.2 87.6038C128.61 120.684 121.27 110.894 153.79 114.764C165.95 116.454 179.41 119.604 190.74 124.684C198.07 127.084 207.07 135.744 193.13 135.164C178.66 131.624 164.14 124.984 148.74 125.454C143.84 125.374 140.03 125.224 135.91 124.164C132.09 122.764 128.45 123.644 128.08 128.454C126.92 139.124 129.36 142.404 140.7 138.904C149.24 136.824 157.96 133.454 166.7 134.084C195.76 138.974 206.34 175.214 207.19 126.004C207.42 124.214 207.69 124.554 208.63 125.494C208.66 123.684 208.73 120.934 208.93 117.604C209.41 109.474 210.17 105.824 210.75 99.9038C211.28 94.5038 211.29 89.8038 211.31 80.4238C211.32 75.2538 211.23 68.6838 210.87 61.0438C207.47 52.4238 210.55 43.2938 212.4 34.5438C214.79 24.7938 218.69 16.5638 205.92 13.4738C196.12 11.1938 174.11 5.93379 173.34 21.1938C171.66 41.3038 174.66 61.3538 173.99 81.1838C173.43 84.0438 172.58 86.8038 170.86 89.1438C168.45 92.5138 161.36 95.0238 159.86 89.2238C158.7 85.0938 159.76 80.1838 160.03 75.8838C161.03 65.0138 160.32 53.5138 161.04 42.4438C161.56 26.6538 166.77 6.88379 142.78 12.8138C138.86 13.5138 136.16 14.0138 132.94 15.2838C131.06 15.9738 128.89 16.3738 127.63 18.0738C125.29 23.3938 134.8 25.8338 137.59 29.0938C143.53 36.0438 138.62 46.6938 139 73.3138C139.06 77.6638 139.27 81.2138 139.42 83.4738V83.4938ZM35.0199 501.774C34.3199 505.254 34.3399 509.184 33.4399 512.484C32.9899 513.004 32.2099 509.974 32.0599 514.054C31.9399 521.664 31.9299 532.264 32.0799 540.474C32.1299 544.334 33.2199 547.954 33.5799 551.664C30.3399 558.114 35.9399 565.074 40.8099 568.984C54.9799 576.554 65.3399 589.364 76.3799 600.834C86.3499 607.104 96.0299 616.164 106.35 621.714C124.44 628.704 143.32 634.514 162.8 635.214C214.46 635.684 261.68 626.204 294.98 583.464C317.27 549.864 315.74 547.514 297.6 513.074C291.38 498.094 282.39 484.564 275.57 469.894C268.45 452.914 261.08 431.084 243.83 454.904C231.26 465.994 219.9 478.624 209.32 491.594C206.53 495.274 198.26 496.084 200.03 501.754C205.53 514.044 208.19 527.404 210.48 540.644C210.52 547.214 210.62 555.684 207.63 561.794C203.01 568.884 195.12 564.084 194.66 556.834C194.05 548.914 184.37 545.944 184.44 538.254C184.29 528.934 188.26 520.344 183.75 511.284C182.88 509.574 182.02 505.584 179.61 506.184C174.49 512.184 175.81 523.024 171.19 529.484C167.78 536.764 169.13 546.304 163.08 552.394C160.71 555.794 156.56 556.824 153.77 553.264C141.31 541.284 158.71 515.394 153.11 499.784C148.49 490.464 138.52 484.924 131.34 477.654C122.63 468.364 111.89 459.104 101.87 451.204C97.8399 447.374 99.1499 437.864 92.1999 437.884C64.9099 448.034 41.6499 472.724 35.0199 501.594L34.9899 501.774H35.0199ZM115.68 655.274C117.25 668.214 122.82 678.214 124.57 691.214C125.04 695.334 125.12 699.904 126.21 703.734C128.48 708.874 129.99 713.644 130.41 719.934C130.55 721.284 130.95 731.794 131.47 729.544C131.83 726.064 131.81 720.704 132.4 716.834C132.87 712.984 133.51 709.294 133.34 705.484C133.22 702.164 132.02 699.304 131.88 693.944C131.66 687.164 131.85 680.014 131.94 673.244C131.94 669.544 132.14 667.084 131.75 664.134C131.31 661.544 130.33 663.744 129.87 660.964C129.22 656.044 129.94 647.594 128.69 643.354C127.92 640.714 126.27 640.564 124.4 639.574C122.05 638.274 119.28 637.244 116.61 636.844C115.45 636.714 114.46 636.614 113.8 636.784C111.77 637.624 112.6 642.034 112.24 643.864C111.66 647.964 114.85 651.144 115.64 655.104L115.68 655.274ZM110.83 747.844C109.38 751.484 109.5 759.114 111.39 762.194C114.65 767.284 124.97 756.574 128.03 754.014C135.57 746.644 130.72 744.464 122.29 745.354C120.29 745.534 118.27 745.644 116.55 745.694C114.17 745.854 112 745.604 110.88 747.744L110.82 747.864L110.83 747.844Z" fill="black"/>
<path d="M167.14 227.164C169.25 229.414 169.16 234.064 168.38 237.184C167.75 241.074 166.23 244.554 163.43 246.814C162.59 247.454 161.66 246.674 160.74 246.234C159.91 245.804 159.04 245.274 158.32 244.364C155.16 239.374 156.85 230.814 161.86 227.394C163.42 226.234 165.71 225.394 167.05 227.074L167.14 227.174V227.164Z" fill="black"/>
<path d="M124.01 211.734C125.98 212.094 126.85 213.594 126.81 215.384C126.72 219.304 125.84 225.384 122.1 227.674C112.78 230.064 110.82 210.284 123.87 211.714L124.01 211.744V211.734Z" fill="black"/>
<path d="M194.21 39.9538C195.86 36.8738 195.36 32.8938 197.77 30.0438C200.02 27.8838 202.89 29.7138 204.58 32.3038C206.21 34.8238 206.45 38.5138 206.52 41.5838C207.09 51.9138 199.61 73.0438 199.32 73.7338C198.05 81.8038 200.61 92.9638 195.41 98.9938C192.97 102.124 187.85 104.024 185.42 100.014C184.13 97.7538 184.71 95.4138 185.02 92.9338C185.55 89.7438 185.81 86.5738 186.09 83.0238C186.37 77.2138 187.3 72.8238 188.81 67.4338C189.47 64.9238 189.94 61.3838 190.6 59.1038C191.63 55.4438 192.5 54.0538 192.96 50.9638C193.61 47.5238 193.28 43.3038 194.19 40.0238L194.21 39.9538Z" fill="black"/>
</g>
<defs>
<clipPath id="clip0_82_4811">
<rect width="324.26" height="780.29" fill="white" transform="translate(0 0.813477)"/>
</clipPath>
</defs>
</svg>
